# File created by Blade
# Date/Time:  Mon Nov 15 14:44:42 2010
#---------------------------------------------------------
:version 1.10
:name HOM
:units
  mass 1.0
  length 1.000000
  angle deg
:documentation
     Acclaim Skeleton File
:root
   axis xyz
   order TX TY TZ RX RY RZ
   position 0.000000 0.000000 0.000000
   orientation 0 0 0
:bonedata
   begin
      id 1
      name LeftUpLeg_dum
      direction 1.000000 0.000000 0.000000
      length 4.719518
      axis 0.0 0.0 0.0 xyz
   end
   begin
      id 2
      name RightUpLeg_dum
      direction -1.000000 0.000000 0.000000
      length 4.719518
      axis 0.0 0.0 0.0 xyz
   end
   begin
      id 3
      name Spine_dum
      direction 0.000000 1.000000 0.000000
      length 0.039370
      axis 0.0 0.0 0.0 xyz
   end
   begin
      id 4
      name LeftUpLeg
      direction 0.000000 -1.000000 0.000000
      length 19.141694
      axis 0.0 0.0 0.0 xyz
      dof rx ry rz
   end
   begin
      id 5
      name LeftLeg
      direction 0.000000 -1.000000 0.000000
      length 19.555040
      axis 0.0 0.0 0.0 xyz
      dof rx ry rz
   end
   begin
      id 6
      name LeftFoot
      direction 0.000000 -0.258819 0.965926
      length 6.929396
      axis 15.0 0.0 0.0 xyz
      dof rx ry rz
   end
   begin
      id 7
      name LeftToeBase
      direction 0.000000 0.000000 1.000000
      length 2.952750
      axis 0.0 0.0 0.0 xyz
      dof rx ry rz
   end
   begin
      id 8
      name RightUpLeg
      direction 0.000000 -1.000000 0.000000
      length 19.141694
      axis 0.0 0.0 0.0 xyz
      dof rx ry rz
   end
   begin
      id 9
      name RightLeg
      direction 0.000000 -1.000000 0.000000
      length 19.555040
      axis 0.0 0.0 0.0 xyz
      dof rx ry rz
   end
   begin
      id 10
      name RightFoot
      direction 0.000000 -0.258819 0.965926
      length 6.929396
      axis 15.0 0.0 0.0 xyz
      dof rx ry rz
   end
   begin
      id 11
      name RightToeBase
      direction 0.000000 0.000000 1.000000
      length 2.952750
      axis 0.0 0.0 0.0 xyz
      dof rx ry rz
   end
   begin
      id 12
      name Spine
      direction 0.000000 1.000000 0.000000
      length 11.965764
      axis 0.0 0.0 0.0 xyz
      dof rx ry rz
   end
   begin
      id 13
      name Spine1
      direction 0.000000 1.000000 0.000000
      length 0.000000
      axis 0.0 0.0 0.0 xyz
      dof rx ry rz
   end
   begin
      id 14
      name Spine1_dum1
      direction 0.000000 1.000000 0.000000
      length 9.788721
      axis 0.0 0.0 0.0 xyz
   end
   begin
      id 15
      name Spine1_dum2
      direction 0.000000 1.000000 0.000000
      length 9.788721
      axis 0.0 0.0 0.0 xyz
   end
   begin
      id 16
      name Spine1_dum3
      direction 0.000000 1.000000 0.000000
      length 9.788721
      axis 0.0 0.0 0.0 xyz
   end
   begin
      id 17
      name Neck
      direction 0.000000 1.000000 0.000000
      length 7.029632
      axis 0.0 0.0 0.0 xyz
      dof rx ry rz
   end
   begin
      id 18
      name Head
      direction 0.000000 1.000000 0.000000
      length 4.527550
      axis 0.0 0.0 0.0 xyz
      dof rx ry rz
   end
   begin
      id 19
      name LeftShoulder
      direction 1.000000 -0.000004 0.000000
      length 9.320257
      axis 0.0 0.0 -90.0 xyz
      dof rx ry rz
   end
   begin
      id 20
      name LeftArm
      direction 1.000000 -0.000004 0.000000
      length 12.801352
      axis 0.0 0.0 -90.0 xyz
      dof rx ry rz
   end
   begin
      id 21
      name LeftForeArm
      direction 1.000000 -0.000004 0.000000
      length 11.278127
      axis 0.0 0.0 -90.0 xyz
      dof rx ry rz
   end
   begin
      id 22
      name LeftHand
      direction 0.000000 0.000000 0.000000
      length 0.000000
      axis 0.0 0.0 -90.0 xyz
      dof rx ry rz
   end
   begin
      id 23
      name LeftHand_dum1
      direction 0.000000 0.000000 0.000000
      length 0.000000
      axis 0.0 0.0 -90.0 xyz
   end
   begin
      id 24
      name LeftHand_dum2
      direction 1.000000 -0.000004 0.000000
      length 3.937000
      axis 0.0 0.0 -90.0 xyz
   end
   begin
      id 25
      name LeftHandThumb
      direction 0.000000 0.000000 1.000000
      length 3.937000
      axis 0.0 0.0 -90.0 xyz
      dof rx ry rz
   end
   begin
      id 26
      name RightShoulder
      direction -1.000000 -0.000004 0.000000
      length 9.320257
      axis 0.0 0.0 90.0 xyz
      dof rx ry rz
   end
   begin
      id 27
      name RightArm
      direction -1.000000 -0.000004 0.000000
      length 12.801352
      axis 0.0 0.0 90.0 xyz
      dof rx ry rz
   end
   begin
      id 28
      name RightForeArm
      direction -1.000000 -0.000004 0.000000
      length 11.278127
      axis 0.0 0.0 90.0 xyz
      dof rx ry rz
   end
   begin
      id 29
      name RightHand
      direction 0.000000 0.000000 0.000000
      length 0.000000
      axis 0.0 0.0 90.0 xyz
      dof rx ry rz
   end
   begin
      id 30
      name RightHand_dum1
      direction 0.000000 0.000000 0.000000
      length 0.000000
      axis 0.0 0.0 90.0 xyz
   end
   begin
      id 31
      name RightHand_dum2
      direction -1.000000 -0.000004 0.000000
      length 5.393690
      axis 0.0 0.0 90.0 xyz
   end
   begin
      id 32
      name RightHandThumb
      direction 0.000000 0.000000 1.000000
      length 3.937000
      axis 0.0 0.0 90.0 xyz
      dof rx ry rz
   end
:hierarchy
   begin
      root LeftUpLeg_dum RightUpLeg_dum Spine_dum
      LeftUpLeg_dum LeftUpLeg
      RightUpLeg_dum RightUpLeg
      Spine_dum Spine
      LeftUpLeg LeftLeg
      LeftLeg LeftFoot
      LeftFoot LeftToeBase
      RightUpLeg RightLeg
      RightLeg RightFoot
      RightFoot RightToeBase
      Spine Spine1
      Spine1 Spine1_dum1 Spine1_dum2 Spine1_dum3
      Spine1_dum1 Neck
      Spine1_dum2 LeftShoulder
      Spine1_dum3 RightShoulder
      Neck Head
      LeftShoulder LeftArm
      LeftArm LeftForeArm
      LeftForeArm LeftHand
      LeftHand LeftHand_dum1 LeftHand_dum2
      LeftHand_dum1 LeftHandThumb
      RightShoulder RightArm
      RightArm RightForeArm
      RightForeArm RightHand
      RightHand RightHand_dum1 RightHand_dum2
      RightHand_dum1 RightHandThumb
   end

# File created by Blade
# Date/Time:  Mon Nov 15 14:56:25 2010
# Frame Rate: 200.000 fps
#------------------------------------------------------
:FULLY-SPECIFIED
:DEGREES
32
root  4.843230 40.550189 -88.337376 -13.670652 3.403177 0.424517
LeftUpLeg  14.859998 4.065096 0.510238
LeftLeg  -0.732459 0.000000 -0.000000
LeftFoot  5.822308 6.019332 1.008283
LeftToeBase  -19.912872 0.000000 -0.000000
RightUpLeg  19.965966 -6.890108 -1.368640
RightLeg  -8.414912 0.000000 -0.000000
RightFoot  5.127794 -13.089911 -3.926312
RightToeBase  -27.666253 0.000000 -0.000000
Spine  11.723103 -1.525095 0.660169
Spine1  0.560399 0.095227 -4.824955
Neck  13.650554 -4.555114 -1.542046
Head  -17.633698 -7.259816 7.448396
LeftShoulder  -11.882838 6.279843 12.831501
LeftArm  16.292821 -45.193300 -40.294994
LeftForeArm  22.645650 -0.000000 0.000000
LeftHand  -12.442510 6.988276 -9.568591
LeftHandThumb  0.000000 -0.000000 0.000000
RightShoulder  -12.713508 -10.237499 -12.777945
RightArm  9.596322 34.501301 45.601667
RightForeArm  26.898872 -0.000000 0.000000
RightHand  -4.204429 1.309775 14.324691
RightHandThumb  0.000000 -0.000000 0.000000
33
root  4.843292 40.550216 -88.334958 -13.669325 3.418570 0.424781
LeftUpLeg  14.855013 4.078983 0.514648
LeftLeg  -0.721491 0.000000 -0.000000
LeftFoot  5.817994 5.987115 1.007381
LeftToeBase  -19.923992 0.000000 -0.000000
RightUpLeg  19.969467 -6.888781 -1.367893
RightLeg  -8.414722 0.000000 -0.000000
RightFoot  5.132953 -13.105435 -3.940327
RightToeBase  -27.699573 0.000000 -0.000000
Spine  11.718817 -1.527908 0.660697
Spine1  0.560395 0.092579 -4.826318
Neck  13.650558 -4.554888 -1.539570
Head  -17.616796 -7.257812 7.440939
LeftShoulder  -11.880917 6.284859 12.832562
LeftArm  16.320661 -45.176494 -40.322645
LeftForeArm  22.649867 -0.000000 0.000000
LeftHand  -12.449782 6.962003 -9.557972
LeftHandThumb  0.000000 -0.000000 0.000000
RightShoulder  -12.717533 -10.243328 -12.769654
RightArm  9.604671 34.515576 45.622547
RightForeArm  26.919076 -0.000000 0.000000
RightHand  -4.201183 1.283187 14.357227
RightHandThumb  0.000000 -0.000000 0.000000
34
root  4.843826 40.550176 -88.332413 -13.667667 3.432857 0.425122
LeftUpLeg  14.853126 4.081192 0.514286
LeftLeg  -0.716985 0.000000 -0.000000
LeftFoot  5.813059 5.971287 1.004289
LeftToeBase  -19.931103 0.000000 -0.000000
RightUpLeg  19.969737 -6.894988 -1.369882
RightLeg  -8.407595 0.000000 -0.000000
RightFoot  5.125656 -13.113908 -3.943485
RightToeBase  -27.692624 0.000000 -0.000000
Spine  11.714746 -1.533654 0.661902
Spine1  0.560642 0.087321 -4.825365
Neck  13.663475 -4.554671 -1.538488
Head  -17.631342 -7.245556 7.430605
LeftShoulder  -11.877011 6.279461 12.830695
LeftArm  16.317420 -45.144397 -40.318475
LeftForeArm  22.647112 -0.000000 0.000000
LeftHand  -12.444711 6.916013 -9.581202
LeftHandThumb  0.000000 -0.000000 0.000000
RightShoulder  -12.722106 -10.245772 -12.760302
RightArm  9.615533 34.508742 45.635564
RightForeArm  26.948535 -0.000000 0.000000
RightHand  -4.197424 1.284541 14.363973
RightHandThumb  0.000000 -0.000000 0.000000
35
root  4.844419 40.550096 -88.329960 -13.666009 3.447143 0.425464
LeftUpLeg  14.851238 4.083402 0.513923
LeftLeg  -0.712480 0.000000 -0.000000
LeftFoot  5.808124 5.955458 1.001199
LeftToeBase  -19.938213 0.000000 -0.000000
RightUpLeg  19.970007 -6.901194 -1.371871
RightLeg  -8.400468 0.000000 -0.000000
RightFoot  5.118360 -13.122381 -3.946643
RightToeBase  -27.685675 0.000000 -0.000000
Spine  11.710674 -1.539400 0.663109
Spine1  0.560890 0.082064 -4.824412
Neck  13.676393 -4.554455 -1.537406
Head  -17.645891 -7.233303 7.420269
LeftShoulder  -11.873105 6.274064 12.828828
LeftArm  16.314185 -45.112299 -40.314310
LeftForeArm  22.644356 -0.000000 0.000000
LeftHand  -12.439622 6.870025 -9.604433
LeftHandThumb  0.000000 -0.000000 0.000000
RightShoulder  -12.726680 -10.248216 -12.750950
RightArm  9.626393 34.501905 45.648578
RightForeArm  26.977993 -0.000000 0.000000
RightHand  -4.193666 1.285894 14.370720
RightHandThumb  0.000000 -0.000000 0.000000
36
root  4.844688 40.549978 -88.327998 -13.665321 3.450740 0.426096
LeftUpLeg  14.851684 4.082631 0.512867
LeftLeg  -0.709037 0.000000 -0.000000
LeftFoot  5.804642 5.953326 1.005253
LeftToeBase  -19.932860 0.000000 -0.000000
RightUpLeg  19.969119 -6.884764 -1.367635
RightLeg  -8.396404 0.000000 -0.000000
RightFoot  5.118215 -13.147723 -3.951288
RightToeBase  -27.699474 0.000000 -0.000000
Spine  11.709369 -1.540395 0.664264
Spine1  0.559896 0.081419 -4.822869
Neck  13.679317 -4.551537 -1.536195
Head  -17.648741 -7.224486 7.411692
LeftShoulder  -11.871186 6.266750 12.828344
LeftArm  16.319005 -45.101458 -40.322728
LeftForeArm  22.642714 -0.000000 0.000000
LeftHand  -12.443604 6.861431 -9.624700
LeftHandThumb  0.000000 -0.000000 0.000000
RightShoulder  -12.726498 -10.242842 -12.745390
RightArm  9.628788 34.486477 45.656803
RightForeArm  27.006990 -0.000000 0.000000
RightHand  -4.183289 1.318898 14.375625
RightHandThumb  0.000000 -0.000000 0.000000
